<?xml version="1.0" encoding="UTF-8"?>
<svg width="127px" height="24px" viewBox="0 0 127 24" version="1.1" xmlns="http://www.w3.org/2000/svg" xmlns:xlink="http://www.w3.org/1999/xlink">
    <!-- Generator: Sketch 61.2 (89653) - https://sketch.com -->
    <title>Group 21</title>
    <desc>Created with Sketch.</desc>
    <defs>
        <polygon id="path-1" points="0.175175 0.0418064516 16.429075 0.0418064516 16.429075 6.6741235 0.175175 6.6741235"></polygon>
        <polygon id="path-3" points="0 0.0628556047 13.8151179 0.0628556047 13.8151179 4.58513006 0 4.58513006"></polygon>
    </defs>
    <g id="Design-Alterations" stroke="none" stroke-width="1" fill="none" fill-rule="evenodd">
        <g id="Home-Alternative-4" transform="translate(-1679.000000, -115.000000)">
            <g id="Group-21" transform="translate(1678.000000, 113.000000)">
                <text id="motion" font-family="MerriweatherSans-Regular, Merriweather Sans" font-size="11" font-weight="normal" letter-spacing="2" fill="#FFFFFF">
                    <tspan x="16" y="25">MOTION</tspan>
                </text>
                <text id="Branding" font-family="MerriweatherSans-Regular, Merriweather Sans" font-size="11" font-weight="normal" letter-spacing="2" fill="#FFFFFF">
                    <tspan x="0" y="11">BRANDING</tspan>
                </text>
                <g id="Group-21-Copy" transform="translate(89.000000, 2.000000)">
                    <g id="Group">
                        <path d="M0.866666667,18.426893 C2.1926472,18.5018253 3.42950623,18.6619081 4.66029372,18.624442 C8.62088808,18.5033155 12.1939882,17.2567132 15.253176,14.7652116 C16.4974076,13.7519214 17.6598903,12.6302774 18.7761859,11.4798951 C20.7500863,9.44607705 22.8579942,7.58724315 25.3317123,6.14990388 C27.6083222,4.82709194 30.0824739,4.10395191 32.7014752,3.90682866 C34.0430683,3.8059254 35.398756,3.89001145 36.7483721,3.8895857 C37.1523463,3.8895857 37.411254,4.04583674 37.5415752,4.45306868 C37.6968331,4.93736175 37.9177937,5.40121872 38.1333333,5.93042865 C37.9173601,5.93042865 37.7800999,5.94831024 37.6486945,5.92787413 C34.6185633,5.45677938 31.6476297,5.69115594 28.7434829,6.66378673 C26.9467414,7.2655874 25.3299775,8.21480182 23.9044672,9.4162744 C22.4182414,10.669263 21.0020551,12.0112338 19.6418138,13.3962055 C16.5041297,16.5916883 12.9743977,19.1287454 8.4545713,20.0730637 C6.38265896,20.5060536 4.29079727,20.7140335 2.16987893,20.4632655 C1.80992347,20.4206903 1.5726998,20.3027569 1.45126904,19.9451251 C1.27627864,19.4297522 1.06138956,18.9273646 0.866666667,18.426893" id="Fill-1" fill="#D9AF99"></path>
                        <path d="M2.6,21.8886882 C3.6912113,21.9579699 4.67243715,22.0791599 5.65279867,22.0721682 C9.78708498,22.0418707 13.4995803,20.7765788 16.6697112,18.1728997 C18.123075,16.9792202 19.4407397,15.6228239 20.7830376,14.3043525 C23.0421691,12.0860662 25.4439144,10.0554973 28.4113609,8.79571409 C31.2091835,7.6079669 34.150268,7.14714811 37.1944234,7.32130583 C37.2659464,7.32533138 37.3379015,7.33232311 37.4085601,7.34461161 C37.8076626,7.41474082 38.4412134,7.3649512 38.5587617,7.58254242 C38.8364263,8.0954814 38.8684064,8.73639029 39,9.32729769 C37.8076626,9.27835556 36.7363308,9.18894612 35.6656472,9.19869217 C31.7355579,9.23471019 28.2058674,10.4294491 25.2103304,12.9356677 C23.7120216,14.1890948 22.3094369,15.5598983 20.9338625,16.9444734 C17.8313651,20.0663882 14.3485643,22.5471823 9.90701018,23.4904307 C8.21703719,23.8493397 6.5119385,24.0561255 4.77615624,23.9866319 C4.23422398,23.9650211 3.81956368,23.8201016 3.53930605,23.3281378 C3.26293788,22.842742 2.92952421,22.3884912 2.6,21.8886882" id="Fill-3" fill="#D9AF99"></path>
                        <path d="M1.21807326e-14,15.092633 C0.90678617,15.1639503 1.70900134,15.2744389 2.51208072,15.2825286 C6.9070877,15.3265963 10.8222348,13.9830634 14.1685069,11.1757162 C15.4769408,10.0776426 16.6784271,8.85098488 17.8812097,7.63710045 C20.2703547,5.22572394 22.8442273,3.06342577 26.0461742,1.76736678 C28.7639401,0.667377156 31.6134999,0.2754513 34.5408399,0.481100608 C34.796866,0.499196044 35.1051776,0.690369004 35.2704603,0.8945281 C35.6686511,1.3860853 35.9964078,1.93320613 36.4,2.52780087 C35.5476599,2.46031554 34.8063725,2.37537343 34.0631405,2.34727228 C31.1247817,2.23614502 28.2881852,2.69129845 25.6564096,4.02482565 C23.253221,5.24254205 21.1805977,6.9134959 19.354062,8.86226792 C17.6562956,10.6737275 15.8939285,12.3970517 13.8299475,13.815521 C10.9868693,15.7691894 7.83288678,16.8366072 4.40084048,17.1035681 C3.2438617,17.1936196 2.07219113,17.101865 0.907218282,17.0933495 C0.55331889,17.0910078 0.347417718,16.9458185 0.292539546,16.574117 C0.220809022,16.0908624 0.105219172,15.6139944 1.21807326e-14,15.092633" id="Fill-5" fill="#D9AF99"></path>
                        <path d="M19.9333333,18.9485086 C20.451557,18.4548183 20.8763698,18.0501716 21.3791339,17.5714286 C25.5610684,21.4017995 30.5874028,22.668696 36.4,21.8453094 C35.8880908,22.5830689 35.488536,23.2258059 35.0099412,23.8055505 C34.8790788,23.9637791 34.5115319,23.9744558 34.2502426,23.9836377 C30.0948725,24.1294814 26.1929529,23.314209 22.7136688,20.98007 C21.7771645,20.3518533 20.8909585,19.6514622 19.9333333,18.9485086" id="Fill-7" fill="#D9AF99"></path>
                        <g id="Group-11" transform="translate(2.166667, 0.000000)">
                            <mask id="mask-2" fill="white">
                                <use xlink:href="#path-1"></use>
                            </mask>
                            <g id="Clip-10"></g>
                            <path d="M16.429075,5.32238157 C15.9788417,5.76477788 15.544425,6.19169032 15.053675,6.6741235 C10.8700583,2.92923871 5.95129167,1.43393917 0.175175,2.29152442 C0.695825,1.51357051 1.098175,0.85196682 1.57050833,0.247432258 C1.691625,0.0923723502 2.032225,0.0795428571 2.27554167,0.0660497696 C4.21189167,-0.0403465438 6.10750833,0.209607373 7.994675,0.667708756 C11.1538917,1.43460276 13.8529083,3.0504553 16.299075,5.16820645 C16.351075,5.21310968 16.3892083,5.27438157 16.429075,5.32238157" id="Fill-9" fill="#D9AF99" mask="url(#mask-2)"></path>
                        </g>
                        <path d="M38.1333333,18.4068801 C37.8622615,19.059102 37.6570555,19.6075078 37.4012002,20.1323677 C37.3316389,20.2744994 37.1179551,20.420056 36.9566598,20.4369662 C31.6552162,20.9969309 26.8446148,19.8339767 22.6737603,16.4581344 C22.6609349,16.4476458 22.6568047,16.4273107 22.5333333,16.2984503 C22.9780912,15.8752659 23.4226316,15.4518675 23.8971704,15 C28.1138918,18.3621429 32.8764524,19.1599213 38.1333333,18.4068801" id="Fill-12" fill="#D9AF99"></path>
                        <path d="M16.4666667,7.72607493 C16.4030281,7.83851292 16.3909588,7.87643579 16.3661617,7.90127416 C15.9779666,8.28915196 15.6334407,8.90124043 15.1851182,8.99216661 C14.8070175,9.06912122 14.2952759,8.56059989 13.8649477,8.27673278 C10.7762842,6.24109508 7.3740363,5.3305026 3.70670099,5.4189893 C2.80391153,5.4405011 1.90441372,5.60017636 0.866666667,5.71106195 C1.15282064,5.01736168 1.39003878,4.35670533 1.70691481,3.73752018 C1.78218384,3.59070766 2.12034586,3.5388132 2.34417796,3.51841025 C7.01656328,3.09283135 11.3126035,4.1768489 15.2125486,6.82213558 C15.6332213,7.10733332 16.0378746,7.41626058 16.4666667,7.72607493" id="Fill-14" fill="#D9AF99"></path>
                        <path d="M39,15.1394619 C38.8827427,15.6909012 38.790261,16.2237051 38.6441699,16.7414736 C38.6106373,16.860698 38.4002576,16.9958048 38.2590789,17.0108402 C33.7142359,17.4953614 29.4763124,16.6754025 25.6672645,14.065807 C25.6535951,14.0562775 25.6459061,14.0382774 25.5666667,13.9323942 C26.0495789,13.5770505 26.5292874,13.2083654 27.0312086,12.8722924 C27.1042542,12.8233744 27.3011782,12.9027867 27.4111736,12.9703401 C30.7215041,14.9984255 34.3425985,15.5128058 38.1465204,15.1470855 C38.3581816,15.1267559 38.5698429,15.1055793 38.7819313,15.0884262 C38.8139688,15.0856732 38.8479286,15.1028263 39,15.1394619" id="Fill-16" fill="#D9AF99"></path>
                        <g id="Group-20" transform="translate(0.000000, 6.857143)">
                            <mask id="mask-4" fill="white">
                                <use xlink:href="#path-3"></use>
                            </mask>
                            <g id="Clip-19"></g>
                            <path d="M-4.4021164e-05,2.29040204 C0.109568677,1.71121837 0.225344339,1.24068776 0.280811005,0.76252449 C0.332095661,0.323646939 0.551321058,0.174585714 0.961818413,0.140687755 C5.38154328,-0.223210204 9.50852741,0.678116327 13.2950078,3.07252449 C13.4468808,3.16860612 13.5888491,3.28040204 13.8151179,3.44136122 C13.280701,3.84432041 12.8109951,4.21921837 12.3153168,4.55415714 C12.2195708,4.6188102 11.9959433,4.57301429 11.8753253,4.50140204 C8.81827556,2.68303469 5.51294646,1.91752449 1.99169354,2.0625449 C1.66373587,2.07601429 1.33709884,2.12742245 1.01024169,2.16491224 C0.707376085,2.19993265 0.404950688,2.23989184 -4.4021164e-05,2.29040204" id="Fill-18" fill="#D9AF99" mask="url(#mask-4)"></path>
                        </g>
                    </g>
                </g>
            </g>
        </g>
    </g>
</svg>